<?xml version="1.0" encoding="UTF-8" standalone="no"?>
<!DOCTYPE svg PUBLIC "-//W3C//DTD SVG 1.1//EN" "http://www.w3.org/Graphics/SVG/1.1/DTD/svg11.dtd">
<svg xmlns="http://www.w3.org/2000/svg" version="1.1" viewBox="0.00 0.00 1656.00 1647.00">
<g stroke-width="2.00" fill="none" stroke-linecap="butt">
<path stroke="#0a7fb2" vector-effect="non-scaling-stroke" d="
  M 1563.13 596.70
  Q 1560.80 595.68 1558.77 595.58
  Q 1558.25 595.55 1558.12 596.05
  C 1555.58 605.57 1546.85 613.25 1538.50 617.67
  Q 1532.80 620.69 1521.39 623.49
  C 1499.88 628.76 1476.09 630.90 1453.83 633.14
  Q 1442.13 634.33 1434.35 636.15
  Q 1424.16 638.53 1415.53 642.29
  Q 1400.29 648.93 1388.52 661.50
  C 1387.66 662.42 1386.98 663.85 1386.15 664.81
  Q 1376.02 676.58 1370.56 689.81
  C 1365.75 701.49 1361.42 715.73 1358.52 729.68
  Q 1355.49 744.21 1354.01 751.07
  Q 1350.48 767.42 1343.63 790.14
  C 1342.06 795.38 1339.81 800.95 1338.18 806.02
  Q 1336.08 812.60 1333.73 817.77
  Q 1332.27 821.00 1330.28 826.15
  Q 1328.79 830.01 1326.59 834.42
  Q 1322.74 842.13 1317.34 852.77
  C 1316.43 854.55 1314.80 856.52 1313.92 858.73
  C 1313.49 859.84 1312.37 860.49 1311.90 861.68
  Q 1311.04 863.84 1310.12 864.88
  C 1308.81 866.34 1308.43 868.02 1307.23 869.73
  Q 1300.04 879.95 1297.22 883.94
  Q 1295.32 886.62 1290.17 892.91
  Q 1277.43 908.49 1264.60 921.46
  C 1260.23 925.88 1256.50 928.73 1252.32 932.74
  Q 1248.76 936.16 1242.84 940.89
  Q 1233.02 948.74 1229.99 950.98
  Q 1211.22 964.85 1184.86 980.51
  C 1177.67 984.78 1171.48 987.58 1165.33 991.04
  C 1156.31 996.10 1148.63 999.35 1136.16 1005.02
  Q 1129.21 1008.19 1123.11 1010.58
  Q 1121.74 1011.11 1109.88 1015.83
  Q 1102.19 1018.89 1088.39 1023.99
  Q 1088.37 1023.99 1086.79 1024.54
  Q 1028.78 1044.57 972.72 1057.69
  C 969.05 1058.55 964.80 1059.49 961.57 1058.06
  Q 958.88 1056.87 958.19 1056.21
  Q 950.31 1048.70 941.79 1042.23
  A 0.23 0.21 47.4 0 0 941.55 1042.21
  L 941.26 1042.37
  A 0.57 0.56 51.5 0 0 941.16 1043.27
  Q 955.60 1056.95 959.57 1061.67
  Q 960.25 1062.48 970.72 1074.79
  Q 976.72 1081.86 982.37 1089.41
  Q 999.01 1111.68 1007.51 1137.79
  Q 1007.86 1138.87 1008.56 1139.80
  Q 1009.37 1140.88 1009.95 1141.67"
/>
<path stroke="#81b8c3" vector-effect="non-scaling-stroke" d="
  M 1009.95 1141.67
  Q 1009.58 1143.04 1009.77 1143.72
  Q 1013.79 1157.89 1015.66 1172.51
  Q 1016.65 1180.21 1017.36 1187.87"
/>
<path stroke="#81b8c3" vector-effect="non-scaling-stroke" d="
  M 948.48 1202.64
  Q 946.18 1201.26 937.03 1196.21
  Q 907.79 1180.05 879.67 1157.06
  C 876.64 1154.59 875.10 1152.84 872.79 1151.11
  Q 870.75 1149.58 867.41 1146.17
  Q 861.57 1140.21 854.45 1136.26"
/>
<path stroke="#0a7fb2" vector-effect="non-scaling-stroke" d="
  M 854.45 1136.26
  Q 855.32 1134.13 852.13 1130.87
  Q 847.59 1126.25 845.58 1124.16
  Q 829.47 1107.45 813.97 1087.12
  C 811.96 1084.47 810.17 1083.63 807.00 1084.09
  Q 800.00 1085.10 795.77 1085.55
  Q 790.23 1086.14 773.50 1086.22
  Q 734.40 1086.41 694.43 1085.11"
/>
<path stroke="#87c3cf" vector-effect="non-scaling-stroke" d="
  M 694.43 1085.11
  Q 682.86 1076.89 670.41 1062.85
  Q 650.81 1040.74 643.92 1032.48
  Q 633.15 1019.57 630.15 1016.02
  Q 626.55 1011.76 622.69 1008.20
  Q 615.69 1001.75 613.84 1000.16
  C 586.67 976.79 552.24 963.77 516.74 960.83
  Q 508.77 960.17 500.80 959.74"
/>
<path stroke="#0a7fb2" vector-effect="non-scaling-stroke" d="
  M 500.80 959.74
  C 502.28 957.82 501.53 954.18 501.32 951.80
  A 2.67 2.66 5.2 0 0 499.36 949.46
  C 497.17 948.86 495.68 948.45 493.11 948.80
  Q 469.62 951.98 447.00 954.22
  Q 429.23 955.98 412.41 956.47
  Q 412.07 956.48 410.46 956.48
  Q 394.36 956.50 386.55 955.96
  Q 377.89 955.37 368.87 954.78
  Q 361.85 954.33 351.28 952.59
  Q 331.05 949.28 311.14 946.05"
/>
<path stroke="#82b6c1" vector-effect="non-scaling-stroke" d="
  M 500.80 959.74
  Q 490.70 958.61 484.62 959.09
  Q 476.04 959.78 448.20 962.89
  Q 435.94 964.25 430.80 964.73
  C 423.57 965.40 417.66 965.33 410.62 965.66
  Q 405.46 965.89 398.32 965.64
  C 388.35 965.28 380.89 965.16 369.03 963.99
  Q 360.86 963.19 352.16 961.84
  Q 350.02 961.50 326.70 957.73
  Q 321.37 956.86 319.31 956.72
  C 311.19 956.16 302.25 959.37 295.89 963.72
  C 294.18 964.88 292.48 966.76 290.49 968.09"
/>
<path stroke="#7baab5" vector-effect="non-scaling-stroke" d="
  M 854.45 1136.26
  Q 852.16 1136.59 850.25 1136.27
  Q 842.06 1134.88 831.16 1133.28
  Q 817.71 1131.31 812.17 1130.13
  Q 802.16 1127.99 792.11 1126.09
  Q 784.81 1124.71 773.42 1121.54
  Q 764.28 1118.99 754.90 1116.42"
/>
<path stroke="#7baab5" vector-effect="non-scaling-stroke" d="
  M 1280.58 1050.45
  Q 1278.16 1051.99 1276.66 1053.16
  C 1267.97 1059.94 1258.99 1066.53 1249.50 1072.15
  Q 1246.27 1074.06 1240.49 1077.44
  Q 1213.07 1093.47 1182.64 1104.84
  Q 1142.34 1119.89 1098.97 1129.33
  Q 1088.79 1131.54 1079.34 1133.17
  Q 1055.70 1137.25 1041.24 1139.21
  Q 1027.96 1141.02 1009.95 1141.67"
/>
<path stroke="#82b6c1" vector-effect="non-scaling-stroke" d="
  M 694.43 1085.11
  Q 703.77 1093.69 713.37 1098.89
  Q 733.29 1109.66 754.90 1116.42"
/>
<path stroke="#f9efd2" vector-effect="non-scaling-stroke" d="
  M 754.90 1116.42
  Q 760.02 1119.53 763.38 1123.41
  Q 768.16 1128.92 768.25 1129.01
  Q 783.45 1144.25 785.26 1145.98
  C 786.20 1146.88 787.31 1147.59 788.18 1148.45
  Q 794.58 1154.79 802.76 1162.61
  Q 803.71 1163.51 805.64 1165.02
  C 808.29 1167.09 810.56 1169.79 812.97 1171.49
  Q 813.62 1171.94 816.29 1174.28
  C 818.44 1176.15 821.39 1178.02 823.48 1180.47
  A 1.01 1.01 0.0 0 1 822.83 1182.13
  Q 741.87 1191.75 660.25 1190.99
  Q 647.74 1190.87 619.57 1189.12
  Q 609.80 1188.52 601.79 1188.38
  Q 592.94 1188.22 584.01 1188.16"
/>
<path stroke="#094762" vector-effect="non-scaling-stroke" d="
  M 607.6913 931.3235
  A 42.66 35.85 86.8 0 0 641.1041 886.7288
  A 42.66 35.85 86.8 0 0 602.9287 846.1365
  A 42.66 35.85 86.8 0 0 569.5159 890.7312
  A 42.66 35.85 86.8 0 0 607.6913 931.3235"
/>
<path stroke="#857b92" vector-effect="non-scaling-stroke" d="
  M 665.4993 957.5317
  A 31.26 22.17 -1.5 0 0 633.6697 936.1876
  A 31.26 22.17 -1.5 0 0 603.0007 959.1683
  A 31.26 22.17 -1.5 0 0 634.8303 980.5124
  A 31.26 22.17 -1.5 0 0 665.4993 957.5317"
/>
<path stroke="#808181" vector-effect="non-scaling-stroke" d="
  M 592.8582 883.4698
  A 13.71 13.02 90.3 0 0 605.9498 869.8282
  A 13.71 13.02 90.3 0 0 593.0018 856.0502
  A 13.71 13.02 90.3 0 0 579.9102 869.6918
  A 13.71 13.02 90.3 0 0 592.8582 883.4698"
/>
</g>
<circle fill="#fefffe" cx="546.47" cy="283.31" r="23.49"/>
<ellipse fill="#fefffe" cx="0.00" cy="0.00" transform="translate(625.75,341.91) rotate(77.5)" rx="18.55" ry="17.86"/>
<circle fill="#fefffe" cx="526.99" cy="410.83" r="28.07"/>
<path fill="#0f8cc0" d="
  M 1563.13 596.70
  Q 1560.80 595.68 1558.77 595.58
  Q 1558.25 595.55 1558.12 596.05
  C 1555.58 605.57 1546.85 613.25 1538.50 617.67
  Q 1532.80 620.69 1521.39 623.49
  C 1499.88 628.76 1476.09 630.90 1453.83 633.14
  Q 1442.13 634.33 1434.35 636.15
  Q 1424.16 638.53 1415.53 642.29
  Q 1400.29 648.93 1388.52 661.50
  C 1387.66 662.42 1386.98 663.85 1386.15 664.81
  Q 1376.02 676.58 1370.56 689.81
  C 1365.75 701.49 1361.42 715.73 1358.52 729.68
  Q 1355.49 744.21 1354.01 751.07
  Q 1350.48 767.42 1343.63 790.14
  C 1342.06 795.38 1339.81 800.95 1338.18 806.02
  Q 1336.08 812.60 1333.73 817.77
  Q 1332.27 821.00 1330.28 826.15
  Q 1328.79 830.01 1326.59 834.42
  Q 1322.74 842.13 1317.34 852.77
  C 1316.43 854.55 1314.80 856.52 1313.92 858.73
  C 1313.49 859.84 1312.37 860.49 1311.90 861.68
  Q 1311.04 863.84 1310.12 864.88
  C 1308.81 866.34 1308.43 868.02 1307.23 869.73
  Q 1300.04 879.95 1297.22 883.94
  Q 1295.32 886.62 1290.17 892.91
  Q 1277.43 908.49 1264.60 921.46
  C 1260.23 925.88 1256.50 928.73 1252.32 932.74
  Q 1248.76 936.16 1242.84 940.89
  Q 1233.02 948.74 1229.99 950.98
  Q 1211.22 964.85 1184.86 980.51
  C 1177.67 984.78 1171.48 987.58 1165.33 991.04
  C 1156.31 996.10 1148.63 999.35 1136.16 1005.02
  Q 1129.21 1008.19 1123.11 1010.58
  Q 1121.74 1011.11 1109.88 1015.83
  Q 1102.19 1018.89 1088.39 1023.99
  Q 1088.37 1023.99 1086.79 1024.54
  Q 1028.78 1044.57 972.72 1057.69
  C 969.05 1058.55 964.80 1059.49 961.57 1058.06
  Q 958.88 1056.87 958.19 1056.21
  Q 950.31 1048.70 941.79 1042.23
  A 0.23 0.21 47.4 0 0 941.55 1042.21
  L 941.26 1042.37
  A 0.57 0.56 51.5 0 0 941.16 1043.27
  Q 955.60 1056.95 959.57 1061.67
  Q 960.25 1062.48 970.72 1074.79
  Q 976.72 1081.86 982.37 1089.41
  Q 999.01 1111.68 1007.51 1137.79
  Q 1007.86 1138.87 1008.56 1139.80
  Q 1009.37 1140.88 1009.95 1141.67
  Q 1009.58 1143.04 1009.77 1143.72
  Q 1013.79 1157.89 1015.66 1172.51
  Q 1016.65 1180.21 1017.36 1187.87
  C 1017.02 1199.14 1016.46 1210.70 1010.97 1220.46
  Q 1009.98 1222.21 1007.51 1223.04
  Q 1006.05 1223.52 1003.47 1222.86
  Q 988.56 1219.04 984.85 1217.65
  Q 978.86 1215.40 972.79 1213.41
  Q 967.36 1211.63 948.48 1202.64
  Q 946.18 1201.26 937.03 1196.21
  Q 907.79 1180.05 879.67 1157.06
  C 876.64 1154.59 875.10 1152.84 872.79 1151.11
  Q 870.75 1149.58 867.41 1146.17
  Q 861.57 1140.21 854.45 1136.26
  Q 855.32 1134.13 852.13 1130.87
  Q 847.59 1126.25 845.58 1124.16
  Q 829.47 1107.45 813.97 1087.12
  C 811.96 1084.47 810.17 1083.63 807.00 1084.09
  Q 800.00 1085.10 795.77 1085.55
  Q 790.23 1086.14 773.50 1086.22
  Q 734.40 1086.41 694.43 1085.11
  Q 682.86 1076.89 670.41 1062.85
  Q 650.81 1040.74 643.92 1032.48
  Q 633.15 1019.57 630.15 1016.02
  Q 626.55 1011.76 622.69 1008.20
  Q 615.69 1001.75 613.84 1000.16
  C 586.67 976.79 552.24 963.77 516.74 960.83
  Q 508.77 960.17 500.80 959.74
  C 502.28 957.82 501.53 954.18 501.32 951.80
  A 2.67 2.66 5.2 0 0 499.36 949.46
  C 497.17 948.86 495.68 948.45 493.11 948.80
  Q 469.62 951.98 447.00 954.22
  Q 429.23 955.98 412.41 956.47
  Q 412.07 956.48 410.46 956.48
  Q 394.36 956.50 386.55 955.96
  Q 377.89 955.37 368.87 954.78
  Q 361.85 954.33 351.28 952.59
  Q 331.05 949.28 311.14 946.05
  L 280.30 938.94
  A 2.55 2.54 0.4 0 1 278.37 936.99
  Q 271.60 905.66 270.03 873.24
  Q 267.50 820.80 280.40 768.22
  Q 285.63 746.90 292.66 729.16
  Q 293.35 727.41 300.27 712.20
  C 302.97 706.26 306.14 700.93 309.40 695.11
  Q 322.23 672.18 340.76 651.25
  C 342.05 649.79 345.28 646.46 347.61 643.94
  Q 349.88 641.47 355.15 636.41
  Q 371.52 620.68 389.48 608.74
  Q 407.33 596.89 419.69 590.93
  Q 430.03 585.96 432.03 584.95
  Q 439.54 581.19 444.51 579.37
  C 449.78 577.44 457.90 573.90 464.68 571.55
  Q 524.38 550.82 588.17 549.32
  Q 588.69 549.31 592.28 548.80
  C 594.26 548.52 596.23 549.02 597.91 549.01
  Q 633.71 548.97 666.49 553.55
  Q 710.17 559.65 749.46 573.09
  Q 759.35 576.47 765.85 578.94
  Q 789.10 587.79 813.83 600.55
  Q 855.86 622.24 891.17 650.71
  Q 893.95 652.95 903.21 660.55
  Q 904.22 661.38 907.40 664.36
  C 909.45 666.27 911.68 667.67 913.37 669.41
  Q 915.78 671.91 922.14 677.58
  C 932.17 686.55 941.51 696.46 951.00 706.32
  Q 951.13 706.45 951.81 707.19
  Q 976.26 733.61 980.64 738.36
  Q 988.67 747.07 1001.46 758.80
  Q 1014.45 770.73 1028.73 782.01
  Q 1056.93 804.30 1088.71 819.02
  Q 1101.29 824.85 1117.20 829.27
  C 1150.77 838.58 1186.15 838.21 1218.99 826.72
  Q 1240.87 819.08 1257.96 805.94
  Q 1267.17 798.87 1277.03 788.72
  C 1278.37 787.34 1279.44 785.56 1280.96 784.03
  C 1284.79 780.16 1286.39 775.32 1284.54 770.19
  C 1282.17 763.62 1275.87 758.86 1269.29 755.70
  Q 1246.08 744.56 1240.12 741.47
  Q 1235.55 739.10 1227.16 734.78
  Q 1220.68 731.45 1208.34 723.24
  Q 1194.99 714.35 1183.73 703.67
  Q 1180.51 700.62 1178.74 698.29
  C 1176.65 695.53 1174.38 693.44 1172.08 690.36
  Q 1165.49 681.59 1159.93 671.67
  Q 1142.96 641.40 1145.78 606.75
  Q 1146.54 597.31 1149.48 587.28
  Q 1150.39 584.20 1151.81 580.83
  Q 1153.70 576.36 1154.49 574.53
  Q 1155.23 572.78 1156.08 571.90
  C 1157.01 570.93 1157.27 569.67 1158.45 568.50
  Q 1160.65 566.33 1161.81 565.51
  A 0.74 0.74 0.0 0 1 1162.89 565.76
  Q 1164.17 568.11 1164.63 569.27
  Q 1170.82 584.85 1181.10 593.96
  Q 1191.48 603.18 1204.51 606.75
  Q 1212.21 608.86 1220.85 609.56
  Q 1227.21 610.07 1235.69 608.88
  Q 1243.54 607.77 1250.40 606.59
  Q 1260.25 604.89 1266.29 604.82
  Q 1273.52 604.72 1282.35 605.92
  C 1298.06 608.06 1313.57 614.72 1325.55 625.25
  Q 1343.40 640.92 1350.80 664.26
  Q 1352.55 669.78 1354.16 677.39
  Q 1354.27 677.92 1354.74 677.65
  Q 1355.35 677.28 1355.56 676.30
  Q 1361.27 650.26 1376.34 631.83
  Q 1381.25 625.82 1389.52 620.29
  Q 1394.55 616.92 1403.41 612.87
  Q 1410.50 609.63 1418.29 607.85
  Q 1435.11 603.99 1452.55 605.92
  Q 1464.00 607.19 1480.51 609.28
  Q 1496.27 611.28 1510.85 605.08
  Q 1533.28 595.54 1542.89 573.53
  Q 1545.50 567.55 1545.52 567.50
  A 2.57 2.29 36.5 0 1 1549.25 567.16
  Q 1549.60 567.46 1551.29 569.56
  Q 1559.70 580.00 1563.43 593.83
  Q 1563.56 594.30 1563.47 594.79
  L 1563.13 596.70
  Z
  M 607.6913 931.3235
  A 42.66 35.85 86.8 0 0 641.1041 886.7288
  A 42.66 35.85 86.8 0 0 602.9287 846.1365
  A 42.66 35.85 86.8 0 0 569.5159 890.7312
  A 42.66 35.85 86.8 0 0 607.6913 931.3235
  Z
  M 665.4993 957.5317
  A 31.26 22.17 -1.5 0 0 633.6697 936.1876
  A 31.26 22.17 -1.5 0 0 603.0007 959.1683
  A 31.26 22.17 -1.5 0 0 634.8303 980.5124
  A 31.26 22.17 -1.5 0 0 665.4993 957.5317
  Z"
/>
<path fill="#0471a3" d="
  M 1563.13 596.70
  Q 1564.24 606.05 1564.45 609.99
  Q 1565.37 627.30 1560.57 643.55
  C 1553.99 665.85 1542.55 686.15 1526.42 702.83
  Q 1519.29 710.19 1516.53 712.29
  Q 1513.70 714.43 1511.06 716.62
  C 1506.39 720.48 1500.00 724.68 1496.34 726.84
  Q 1480.51 736.15 1462.97 744.45
  Q 1461.41 745.19 1459.79 745.80
  C 1456.88 746.90 1454.59 748.41 1451.95 749.37
  Q 1449.63 750.21 1447.22 751.41
  C 1442.02 753.99 1434.56 756.78 1429.00 759.50
  C 1426.00 760.97 1421.46 763.10 1418.12 765.43
  Q 1412.13 769.61 1408.62 773.37
  Q 1407.22 774.87 1402.91 781.16
  Q 1399.40 786.29 1397.65 793.56
  Q 1396.61 797.86 1394.84 808.29
  Q 1389.31 840.82 1387.96 847.71
  Q 1385.26 861.38 1380.73 878.01
  Q 1367.44 926.79 1343.55 969.87
  Q 1328.92 996.27 1309.97 1019.75
  Q 1307.31 1023.04 1299.37 1032.13
  Q 1290.40 1042.41 1280.58 1050.45
  Q 1278.16 1051.99 1276.66 1053.16
  C 1267.97 1059.94 1258.99 1066.53 1249.50 1072.15
  Q 1246.27 1074.06 1240.49 1077.44
  Q 1213.07 1093.47 1182.64 1104.84
  Q 1142.34 1119.89 1098.97 1129.33
  Q 1088.79 1131.54 1079.34 1133.17
  Q 1055.70 1137.25 1041.24 1139.21
  Q 1027.96 1141.02 1009.95 1141.67
  Q 1009.37 1140.88 1008.56 1139.80
  Q 1007.86 1138.87 1007.51 1137.79
  Q 999.01 1111.68 982.37 1089.41
  Q 976.72 1081.86 970.72 1074.79
  Q 960.25 1062.48 959.57 1061.67
  Q 955.60 1056.95 941.16 1043.27
  A 0.57 0.56 51.5 0 1 941.26 1042.37
  L 941.55 1042.21
  A 0.23 0.21 47.4 0 1 941.79 1042.23
  Q 950.31 1048.70 958.19 1056.21
  Q 958.88 1056.87 961.57 1058.06
  C 964.80 1059.49 969.05 1058.55 972.72 1057.69
  Q 1028.78 1044.57 1086.79 1024.54
  Q 1088.37 1023.99 1088.39 1023.99
  Q 1102.19 1018.89 1109.88 1015.83
  Q 1121.74 1011.11 1123.11 1010.58
  Q 1129.21 1008.19 1136.16 1005.02
  C 1148.63 999.35 1156.31 996.10 1165.33 991.04
  C 1171.48 987.58 1177.67 984.78 1184.86 980.51
  Q 1211.22 964.85 1229.99 950.98
  Q 1233.02 948.74 1242.84 940.89
  Q 1248.76 936.16 1252.32 932.74
  C 1256.50 928.73 1260.23 925.88 1264.60 921.46
  Q 1277.43 908.49 1290.17 892.91
  Q 1295.32 886.62 1297.22 883.94
  Q 1300.04 879.95 1307.23 869.73
  C 1308.43 868.02 1308.81 866.34 1310.12 864.88
  Q 1311.04 863.84 1311.90 861.68
  C 1312.37 860.49 1313.49 859.84 1313.92 858.73
  C 1314.80 856.52 1316.43 854.55 1317.34 852.77
  Q 1322.74 842.13 1326.59 834.42
  Q 1328.79 830.01 1330.28 826.15
  Q 1332.27 821.00 1333.73 817.77
  Q 1336.08 812.60 1338.18 806.02
  C 1339.81 800.95 1342.06 795.38 1343.63 790.14
  Q 1350.48 767.42 1354.01 751.07
  Q 1355.49 744.21 1358.52 729.68
  C 1361.42 715.73 1365.75 701.49 1370.56 689.81
  Q 1376.02 676.58 1386.15 664.81
  C 1386.98 663.85 1387.66 662.42 1388.52 661.50
  Q 1400.29 648.93 1415.53 642.29
  Q 1424.16 638.53 1434.35 636.15
  Q 1442.13 634.33 1453.83 633.14
  C 1476.09 630.90 1499.88 628.76 1521.39 623.49
  Q 1532.80 620.69 1538.50 617.67
  C 1546.85 613.25 1555.58 605.57 1558.12 596.05
  Q 1558.25 595.55 1558.77 595.58
  Q 1560.80 595.68 1563.13 596.70
  Z"
/>
<path fill="#020203" d="
  M 607.6913 931.3235
  A 42.66 35.85 86.8 0 1 569.5159 890.7312
  A 42.66 35.85 86.8 0 1 602.9287 846.1365
  A 42.66 35.85 86.8 0 1 641.1041 886.7288
  A 42.66 35.85 86.8 0 1 607.6913 931.3235
  Z
  M 592.8582 883.4698
  A 13.71 13.02 90.3 0 0 605.9498 869.8282
  A 13.71 13.02 90.3 0 0 593.0018 856.0502
  A 13.71 13.02 90.3 0 0 579.9102 869.6918
  A 13.71 13.02 90.3 0 0 592.8582 883.4698
  Z"
/>
<ellipse fill="#fefffe" cx="0.00" cy="0.00" transform="translate(592.93,869.76) rotate(90.3)" rx="13.71" ry="13.02"/>
<ellipse fill="#fa6963" cx="0.00" cy="0.00" transform="translate(634.25,958.35) rotate(-1.5)" rx="31.26" ry="22.17"/>
<path fill="#0471a3" d="
  M 500.80 959.74
  Q 490.70 958.61 484.62 959.09
  Q 476.04 959.78 448.20 962.89
  Q 435.94 964.25 430.80 964.73
  C 423.57 965.40 417.66 965.33 410.62 965.66
  Q 405.46 965.89 398.32 965.64
  C 388.35 965.28 380.89 965.16 369.03 963.99
  Q 360.86 963.19 352.16 961.84
  Q 350.02 961.50 326.70 957.73
  Q 321.37 956.86 319.31 956.72
  C 311.19 956.16 302.25 959.37 295.89 963.72
  C 294.18 964.88 292.48 966.76 290.49 968.09
  Q 288.34 965.07 289.60 961.04
  Q 289.97 959.84 290.33 958.99
  C 291.55 956.07 297.21 952.84 299.78 951.76
  Q 306.16 949.10 311.14 946.05
  Q 331.05 949.28 351.28 952.59
  Q 361.85 954.33 368.87 954.78
  Q 377.89 955.37 386.55 955.96
  Q 394.36 956.50 410.46 956.48
  Q 412.07 956.48 412.41 956.47
  Q 429.23 955.98 447.00 954.22
  Q 469.62 951.98 493.11 948.80
  C 495.68 948.45 497.17 948.86 499.36 949.46
  A 2.67 2.66 5.2 0 1 501.32 951.80
  C 501.53 954.18 502.28 957.82 500.80 959.74
  Z"
/>
<path fill="#fffade" d="
  M 500.80 959.74
  Q 508.77 960.17 516.74 960.83
  C 552.24 963.77 586.67 976.79 613.84 1000.16
  Q 615.69 1001.75 622.69 1008.20
  Q 626.55 1011.76 630.15 1016.02
  Q 633.15 1019.57 643.92 1032.48
  Q 650.81 1040.74 670.41 1062.85
  Q 682.86 1076.89 694.43 1085.11
  Q 703.77 1093.69 713.37 1098.89
  Q 733.29 1109.66 754.90 1116.42
  Q 760.02 1119.53 763.38 1123.41
  Q 768.16 1128.92 768.25 1129.01
  Q 783.45 1144.25 785.26 1145.98
  C 786.20 1146.88 787.31 1147.59 788.18 1148.45
  Q 794.58 1154.79 802.76 1162.61
  Q 803.71 1163.51 805.64 1165.02
  C 808.29 1167.09 810.56 1169.79 812.97 1171.49
  Q 813.62 1171.94 816.29 1174.28
  C 818.44 1176.15 821.39 1178.02 823.48 1180.47
  A 1.01 1.01 0.0 0 1 822.83 1182.13
  Q 741.87 1191.75 660.25 1190.99
  Q 647.74 1190.87 619.57 1189.12
  Q 609.80 1188.52 601.79 1188.38
  Q 592.94 1188.22 584.01 1188.16
  Q 538.84 1178.46 495.65 1161.61
  Q 489.44 1159.19 482.36 1156.28
  Q 472.13 1152.07 461.89 1146.72
  C 461.44 1146.49 461.16 1146.51 460.68 1146.47
  Q 460.22 1146.44 460.04 1146.13
  Q 459.72 1145.56 459.07 1145.52
  Q 458.56 1145.48 458.10 1145.26
  C 456.68 1144.59 455.25 1144.03 454.04 1142.99
  Q 453.39 1142.43 452.77 1142.54
  A 0.71 0.71 0.0 0 1 452.01 1142.14
  Q 451.60 1141.28 450.89 1141.45
  Q 450.43 1141.56 450.15 1141.17
  C 450.00 1140.95 449.71 1140.63 449.47 1140.51
  Q 437.21 1134.55 435.26 1133.31
  Q 430.67 1130.40 424.57 1126.81
  Q 409.10 1117.69 390.51 1104.16
  C 389.31 1103.29 388.37 1102.18 387.14 1101.39
  Q 385.40 1100.28 384.93 1099.88
  Q 381.53 1096.99 373.55 1090.57
  Q 367.92 1086.03 364.88 1082.96
  C 361.75 1079.80 357.03 1076.10 354.45 1073.48
  Q 337.73 1056.48 329.76 1046.48
  Q 312.67 1025.05 301.02 999.58
  Q 300.32 998.05 294.78 985.49
  Q 292.95 981.34 290.49 968.09
  C 292.48 966.76 294.18 964.88 295.89 963.72
  C 302.25 959.37 311.19 956.16 319.31 956.72
  Q 321.37 956.86 326.70 957.73
  Q 350.02 961.50 352.16 961.84
  Q 360.86 963.19 369.03 963.99
  C 380.89 965.16 388.35 965.28 398.32 965.64
  Q 405.46 965.89 410.62 965.66
  C 417.66 965.33 423.57 965.40 430.80 964.73
  Q 435.94 964.25 448.20 962.89
  Q 476.04 959.78 484.62 959.09
  Q 490.70 958.61 500.80 959.74
  Z"
/>
<path fill="#f2e3c6" d="
  M 1280.58 1050.45
  Q 1279.62 1054.76 1277.19 1057.68
  Q 1276.12 1058.97 1271.63 1063.12
  Q 1264.86 1069.37 1260.55 1073.05
  Q 1260.43 1073.16 1251.79 1080.79
  Q 1237.94 1093.04 1223.10 1102.32
  Q 1214.63 1107.61 1206.20 1112.94
  Q 1181.34 1128.64 1176.84 1131.08
  Q 1164.42 1137.80 1148.10 1145.15
  Q 1136.75 1150.26 1130.22 1153.07
  Q 1122.23 1156.53 1108.87 1161.69
  Q 1079.14 1173.17 1053.93 1180.39
  Q 1037.38 1185.13 1020.51 1188.55
  Q 1019.40 1188.77 1017.36 1187.87
  Q 1016.65 1180.21 1015.66 1172.51
  Q 1013.79 1157.89 1009.77 1143.72
  Q 1009.58 1143.04 1009.95 1141.67
  Q 1027.96 1141.02 1041.24 1139.21
  Q 1055.70 1137.25 1079.34 1133.17
  Q 1088.79 1131.54 1098.97 1129.33
  Q 1142.34 1119.89 1182.64 1104.84
  Q 1213.07 1093.47 1240.49 1077.44
  Q 1246.27 1074.06 1249.50 1072.15
  C 1258.99 1066.53 1267.97 1059.94 1276.66 1053.16
  Q 1278.16 1051.99 1280.58 1050.45
  Z"
/>
<path fill="#0471a3" d="
  M 854.45 1136.26
  Q 852.16 1136.59 850.25 1136.27
  Q 842.06 1134.88 831.16 1133.28
  Q 817.71 1131.31 812.17 1130.13
  Q 802.16 1127.99 792.11 1126.09
  Q 784.81 1124.71 773.42 1121.54
  Q 764.28 1118.99 754.90 1116.42
  Q 733.29 1109.66 713.37 1098.89
  Q 703.77 1093.69 694.43 1085.11
  Q 734.40 1086.41 773.50 1086.22
  Q 790.23 1086.14 795.77 1085.55
  Q 800.00 1085.10 807.00 1084.09
  C 810.17 1083.63 811.96 1084.47 813.97 1087.12
  Q 829.47 1107.45 845.58 1124.16
  Q 847.59 1126.25 852.13 1130.87
  Q 855.32 1134.13 854.45 1136.26
  Z"
/>
<path fill="#f2e3c6" d="
  M 854.45 1136.26
  Q 861.57 1140.21 867.41 1146.17
  Q 870.75 1149.58 872.79 1151.11
  C 875.10 1152.84 876.64 1154.59 879.67 1157.06
  Q 907.79 1180.05 937.03 1196.21
  Q 946.18 1201.26 948.48 1202.64
  Q 931.19 1204.87 914.20 1207.19
  Q 904.06 1208.57 894.34 1209.47
  Q 863.80 1212.30 834.98 1213.33
  Q 802.81 1214.48 764.11 1213.14
  Q 712.10 1211.35 656.35 1202.92
  Q 641.33 1200.65 593.69 1191.82
  Q 587.87 1190.74 584.01 1188.16
  Q 592.94 1188.22 601.79 1188.38
  Q 609.80 1188.52 619.57 1189.12
  Q 647.74 1190.87 660.25 1190.99
  Q 741.87 1191.75 822.83 1182.13
  A 1.01 1.01 0.0 0 0 823.48 1180.47
  C 821.39 1178.02 818.44 1176.15 816.29 1174.28
  Q 813.62 1171.94 812.97 1171.49
  C 810.56 1169.79 808.29 1167.09 805.64 1165.02
  Q 803.71 1163.51 802.76 1162.61
  Q 794.58 1154.79 788.18 1148.45
  C 787.31 1147.59 786.20 1146.88 785.26 1145.98
  Q 783.45 1144.25 768.25 1129.01
  Q 768.16 1128.92 763.38 1123.41
  Q 760.02 1119.53 754.90 1116.42
  Q 764.28 1118.99 773.42 1121.54
  Q 784.81 1124.71 792.11 1126.09
  Q 802.16 1127.99 812.17 1130.13
  Q 817.71 1131.31 831.16 1133.28
  Q 842.06 1134.88 850.25 1136.27
  Q 852.16 1136.59 854.45 1136.26
  Z"
/>
</svg>
